<svg width="50" height="50" fill="none" xmlns="http://www.w3.org/2000/svg">
  <path d="M47.84 34a6.21 6.21 0 001.46-4.16 6.38 6.38 0 00-1.36-3.6c.68-1.69.94-4.36-1.33-6.43-1.66-1.51-4.49-2.2-8.4-2-2.75.12-5.05.63-5.14.66h-.01c-.52.09-1.08.2-1.64.33-.04-.67.07-2.33 1.3-6.08 1.47-4.45 1.38-7.86-.27-10.14C30.72.18 27.95 0 27.13 0c-.78 0-1.5.32-2.02.92-1.16 1.35-1.02 3.84-.88 4.99-1.38 3.7-5.24 12.77-8.52 15.3l-.16.14a11.23 11.23 0 00-2.05 3.07 4.31 4.31 0 00-2.07-.52H5.05A4.35 4.35 0 00.7 28.25v17c0 2.4 1.95 4.34 4.35 4.34h6.38c.93 0 1.8-.3 2.5-.8l2.46.3c.38.05 7.07.9 13.94.76 1.24.1 2.42.15 3.5.15 1.87 0 3.5-.15 4.86-.44 3.2-.68 5.39-2.04 6.5-4.04a6.4 6.4 0 00.7-4 6.67 6.67 0 001.95-7.53zM5.04 46.76c-.84 0-1.52-.7-1.52-1.53v-17c0-.85.7-1.53 1.53-1.53h6.38c.84 0 1.52.7 1.52 1.53v17c0 .84-.69 1.52-1.52 1.52H5.05zm40.13-14a1.4 1.4 0 00-.2 1.7c0 .01.44.75.49 1.75.07 1.37-.59 2.58-1.97 3.62-.49.37-.69 1.02-.48 1.6 0 .02.45 1.4-.28 2.7-.7 1.26-2.26 2.16-4.62 2.66-1.9.4-4.47.48-7.62.23h-.15c-6.72.15-13.52-.73-13.6-.74l-1.06-.13c.06-.29.1-.6.1-.92v-17c0-.45-.08-.89-.2-1.3.18-.7.7-2.25 1.94-3.58 4.7-3.72 9.29-16.28 9.48-16.83.09-.21.11-.46.07-.7-.18-1.17-.12-2.6.13-3.03.56.01 2.05.17 2.95 1.41 1.07 1.48 1.03 4.11-.12 7.6-1.76 5.33-1.9 8.13-.52 9.36.7.62 1.61.65 2.28.41a29.5 29.5 0 011.82-.36l.14-.04c3.2-.7 8.96-1.13 10.96.7 1.7 1.54.49 3.6.35 3.81a1.4 1.4 0 00.25 1.82c.01.01 1.11 1.04 1.16 2.44.05.93-.4 1.88-1.3 2.82z" fill="#2E2F22"/>
</svg>
