<svg width="50" height="30" fill="none" xmlns="http://www.w3.org/2000/svg">
  <path d="M44.5 19.9l-.02-.03c-.43-.4-1.74-1.67-2.18-2.23-.51-.69-.4-1.14 0-1.83.48-.86 1.47-2.18 2.5-3.58 3.33-4.47 5.48-7.57 5.04-9.77l-.24-1.18H37.3c-.04.12-.68 2.94-3.39 7.74-1.96 3.48-3.25 4.57-3.7 4.77l-.07-.03c-.15-.18-.4-.67-.51-1.94-.11-1.33-.01-2.94.08-4.5.11-1.82.2-3.4-.02-4.52L29.3.96c-.45-.07-2.1-.7-6.7-.75-3.99-.04-5.16.53-5.73 1.04l-1.9 1.68 2.4.8c.91.31 1.22.67 1.47 2.43.16 1.15.24 3.08.07 4.8-.25 2.47-.86 2.92-.89 2.95-.1-.04-.99-.42-2.52-3.66-1.06-2.25-2-4.91-2.68-6.85-.78-2.23-.64-1.75-1.03-2.8H-.1l.77 1.99c3.21 8.3 6.16 14.8 10.1 19.46 4.35 5.15 9.76 7.84 17.05 7.84h1.46v-1.46c0-1.37.12-2.36.36-3.1.15-.46.35-.84.55-1.23.31-.58.61-.83.78-.87.14-.03.4.07.7.3.83.61 1.49 1.43 2.19 2.3 1 1.24 2.05 2.53 3.7 3.37.91.46 2.57.7 3.48.7h8.86l-.06-1.53c-.1-2.28-1.89-5.13-5.33-8.48zm-3.4 7.06h-.02a7 7 0 01-2.18-.37c-1.1-.56-1.87-1.51-2.76-2.61-.79-.97-1.6-1.97-2.72-2.8a3.97 3.97 0 00-2.4-.89c-.26 0-.5.04-.7.08-.76.17-1.85.72-2.72 2.36-.24.47-.52 1-.75 1.69-.23.72-.38 1.53-.45 2.5-5.49-.3-9.78-2.48-13.4-6.76C9.64 16.17 7 10.6 4.18 3.52h5.6l.29.85c.73 2.1 1.74 4.96 2.92 7.4 1.7 3.5 3.25 5.07 5.03 5.07.89 0 1.68-.38 2.3-1.09.88-1.01 1.4-2.69 1.57-5.12.13-1.92 0-3.83-.14-4.88a7.9 7.9 0 00-.73-2.59 35.6 35.6 0 015.8.27c.15.76.05 2.27-.03 3.72-.22 3.51-.44 7.14 1.42 8.83.33.3.67.46.68.47l.95.29c.36-.12 2.48.96 6.48-6.03a51.18 51.18 0 003.12-6.5h7.17c-.84 1.86-2.85 4.51-4.16 6.28a44.69 44.69 0 00-2.7 3.87c-1.08 1.9-.9 3.58.22 5.06l.02.02c.62.8 2.17 2.27 2.49 2.57 2.32 2.25 3.43 3.87 3.97 4.95H41.1z" fill="#2E2F22"/>
</svg>
