<svg width="50" height="50" fill="none" xmlns="http://www.w3.org/2000/svg">
  <path d="M7.32 50h16.31V32.23h-5.86v-5.86h5.86v-7.33a7.33 7.33 0 017.33-7.32h7.32v5.86h-5.86a2.93 2.93 0 00-2.93 2.93v5.86h8.53l-.98 5.86h-7.55V50h13.19A7.33 7.33 0 0050 42.68V7.32A7.33 7.33 0 0042.68 0H7.32A7.33 7.33 0 000 7.32v35.36A7.33 7.33 0 007.32 50zM2.93 7.32a4.4 4.4 0 014.4-4.39h35.35a4.4 4.4 0 014.39 4.4v35.35a4.4 4.4 0 01-4.4 4.39H32.43V35.16h7.1l1.96-11.72h-9.06V20.5h8.8V8.79H30.95c-5.66 0-10.26 4.6-10.26 10.25v4.4h-5.86v11.72h5.86v11.91H7.32a4.4 4.4 0 01-4.39-4.4V7.33z" fill="#2E2F22"/>
</svg>
