<svg width="50" height="42" fill="none" xmlns="http://www.w3.org/2000/svg">
  <path d="M50 6.06c-3.15.14-3.08.13-3.43.16L48.43.9s-5.81 2.14-7.29 2.52C37.27-.06 31.52-.21 27.4 2.32a9.52 9.52 0 00-4.57 9.78A25.38 25.38 0 016.39 2.84L5 1.2 3.98 3.08a11.44 11.44 0 00-1.22 7.7c.21 1.06.57 2.06 1.07 3l-1.18-.45-.14 1.97c-.14 2.01.52 4.36 1.79 6.27.35.54.81 1.14 1.39 1.72l-.61-.09.74 2.27a11.01 11.01 0 005.67 6.55 97.74 97.74 0 01-8.28 3L0 36.06l2.96 1.62c1.13.62 5.12 2.68 9.07 3.3 8.76 1.37 18.63.25 25.28-5.73 5.6-5.04 7.43-12.21 7.05-19.67-.06-1.13.25-2.21.87-3.04 1.24-1.66 4.76-6.48 4.77-6.5zm-7.11 4.74a7.6 7.6 0 00-1.45 4.94c.38 7.52-1.67 13.36-6.1 17.34-5.16 4.66-13.5 6.48-22.86 5.01-1.7-.26-3.45-.86-4.9-1.45a77.7 77.7 0 008.88-3.65l5.11-2.42-5.65-.36a7.99 7.99 0 01-6.34-3.62c.73-.04 1.44-.16 2.15-.36l5.39-1.5-5.44-1.33a8.1 8.1 0 01-6.01-5.8c.54.15 1.18.25 2.2.35l5.03.5-3.98-3.1A8.39 8.39 0 015.74 6.5c8.96 9.29 19.48 8.59 20.54 8.84-.23-2.27-.24-2.27-.3-2.49a6.73 6.73 0 012.96-8.05c2.8-1.72 7.24-1.98 10.32.85.66.62 1.56.86 2.4.65.76-.19 1.38-.39 1.99-.6l-1.27 3.6H44l-1.11 1.49z" fill="#2E2F22"/>
</svg>
